<?xml version="1.0" encoding="UTF-8"?>
<svg width="360px" height="43px" viewBox="0 0 360 43" version="1.1" xmlns="http://www.w3.org/2000/svg" xmlns:xlink="http://www.w3.org/1999/xlink">
    <title>logo</title>
    <defs>
        <polygon id="path-1" points="0 0.485052946 24.7375733 0.485052946 24.7375733 40.2901 0 40.2901"></polygon>
        <polygon id="path-3" points="0.3065 0.143 26.16263 0.143 26.16263 41.9999092 0.3065 41.9999092"></polygon>
        <polygon id="path-5" points="0.6173 0.875670679 23.809 0.875670679 23.809 40.6828 0.6173 40.6828"></polygon>
    </defs>
    <g id="logo" stroke="none" stroke-width="1" fill="none" fill-rule="evenodd">
        <g id="Group-28">
            <g id="Group-3" transform="translate(0.000000, 1.857300)">
                <mask id="mask-2" fill="white">
                    <use xlink:href="#path-1"></use>
                </mask>
                <g id="Clip-2"></g>
                <path d="M16.9925,25.0781 C16.8125,26.6941 16.4755,28.1911 15.9765,29.5611 C15.5585,30.6701 14.8875,31.6311 13.9605,32.4521 C13.0345,33.2731 11.8345,33.6841 10.3675,33.6841 L6.9925,33.6931 L6.9725,6.7851 L10.0555,6.7781 C11.1635,6.7781 12.1135,6.9741 12.9055,7.3741 C13.6925,7.7681 14.3465,8.3031 14.8585,8.9681 C15.3705,9.6351 15.7805,10.3971 16.0825,11.2501 C16.3885,12.1091 16.6205,12.9921 16.7895,13.9081 C16.8845,14.4401 16.9925,15.2971 17.1105,16.4771 C17.2285,17.6591 17.2815,18.9831 17.2735,20.4461 C17.2625,21.9171 17.1715,23.4561 16.9925,25.0781 M24.1535,14.0241 C23.7205,11.6571 23.1355,9.7511 22.4015,8.3031 C21.6645,6.8501 20.7965,5.5351 19.8025,4.3571 C18.4425,2.7921 16.8125,1.7541 14.9175,1.2471 C13.0175,0.7321 10.6525,0.4811 7.8275,0.485052946 L-0.0005,0.5001 L0.0235,40.2901 L8.2905,40.2731 C10.1455,40.2711 11.7545,40.1621 13.1145,39.9501 C14.4735,39.7391 15.6755,39.4011 16.7155,38.9411 C17.7545,38.4831 18.6665,37.8711 19.4535,37.1041 C20.2435,36.3411 20.9755,35.4071 21.6515,34.2951 C22.4555,32.9961 23.0975,31.5161 23.5765,29.8571 C24.0545,28.1911 24.3775,26.4581 24.5525,24.6421 C24.7255,22.8311 24.7765,21.0161 24.7085,19.2031 C24.6345,17.3911 24.4525,15.6641 24.1535,14.0241" id="Fill-1" fill="#DC1842" mask="url(#mask-2)"></path>
            </g>
            <polygon id="Fill-4" fill="#DC1842" points="32.5179 2.2967 32.5389 42.0867 39.6369 42.0737 39.6139 2.2837"></polygon>
            <polygon id="Fill-6" fill="#DC1842" points="54.3788 24.5321 63.9668 24.5141 63.9398 17.9281 54.3008 17.9471 54.3048 8.8401 65.8508 8.8191 66.7518 2.2361 47.3758 2.2701 47.3978 42.0601 67.2138 42.0261 67.2348 35.1551 54.4148 35.1781"></polygon>
            <g id="Group-10" transform="translate(70.000000, 0.857300)">
                <mask id="mask-4" fill="white">
                    <use xlink:href="#path-3"></use>
                </mask>
                <g id="Clip-9"></g>
                <path d="M23.1195,21.0429 C21.7015,19.5309 19.8115,18.2979 17.4515,17.3509 L13.2245,15.6339 C11.9895,15.1379 11.0795,14.5769 10.4935,13.9409 C9.9035,13.3139 9.5365,12.5959 9.3865,11.7899 C9.2625,11.1039 9.2975,10.4509 9.4965,9.8369 C9.6945,9.2269 10.0035,8.6869 10.4255,8.2289 C10.8495,7.7679 11.3755,7.4029 12.0155,7.1349 C12.6505,6.8649 13.3595,6.7299 14.1425,6.7279 C15.6105,6.7249 16.9945,6.9429 18.2995,7.3769 C19.6025,7.8169 20.8985,8.5299 22.1885,9.5209 L25.3065,4.0629 C23.8395,2.8279 22.1055,1.8659 20.1025,1.1729 C18.0995,0.4829 16.0535,0.1389 13.9675,0.142865517 C11.9455,0.1469 10.1175,0.5059 8.4875,1.2129 C6.8505,1.9239 5.4895,2.9039 4.3955,4.1469 C3.3005,5.3909 2.5375,6.8749 2.1005,8.5959 C1.6615,10.3159 1.6285,12.1679 1.9895,14.1609 C2.4155,16.4909 3.2955,18.3319 4.6385,19.6879 C5.9795,21.0429 7.7035,22.1389 9.8175,22.9769 L13.6725,24.5199 C15.0085,25.0499 16.0305,25.6489 16.7395,26.3179 C17.4495,26.9849 17.8945,27.8169 18.0765,28.8119 C18.4385,30.7989 18.0845,32.3929 17.0185,33.5979 C15.9505,34.8079 14.3375,35.4129 12.1855,35.4149 C10.4235,35.4219 8.8335,35.1529 7.4165,34.6239 C5.9945,34.0919 4.4635,33.3299 2.8145,32.3419 L0.3065,38.4489 C1.9685,39.5029 3.7475,40.3609 5.6475,41.0169 C7.5455,41.6789 9.7185,42.0019 12.1645,41.9999092 C14.7085,41.9939 16.9295,41.6069 18.8275,40.8389 C20.7275,40.0679 22.2625,39.0019 23.4335,37.6449 C24.6035,36.2809 25.4015,34.6679 25.8295,32.8159 C26.2585,30.9569 26.2735,28.9349 25.8725,26.7539 C25.4545,24.4589 24.5365,22.5549 23.1195,21.0429" id="Fill-8" fill="#DC1842" mask="url(#mask-4)"></path>
            </g>
            <polygon id="Fill-11" fill="#DC1842" points="108.5443 24.4324 118.1323 24.4154 118.1033 17.8304 108.4663 17.8474 108.4683 8.7424 120.0163 8.7214 120.9173 2.1394 101.5413 2.1724 101.5633 41.9624 121.3793 41.9274 121.4003 35.0594 108.5753 35.0824"></polygon>
            <polygon id="Fill-13" fill="#DC1842" points="153.892 2.078 145.331 2.095 135.777 20.261 135.787 2.112 128.694 2.124 128.715 41.917 135.81 41.904 135.783 21.116 146.284 41.883 154.99 41.868 142.925 20.82"></polygon>
            <path d="M179.2225,24.283 C179.1395,26.067 178.9505,27.773 178.6605,29.4 C178.3695,31.032 177.9595,32.382 177.4365,33.452 C176.8555,34.566 176.1235,35.346 175.2365,35.787 C174.3495,36.228 173.4185,36.4540231 172.4375,36.4540231 C170.6685,36.458 169.2515,35.943 168.1775,34.908 C167.1025,33.878 166.3335,32.075 165.8635,29.511 C165.6205,28.17 165.4495,26.656 165.3545,24.973 C165.2615,23.287 165.2575,21.598 165.3415,19.913 C165.4265,18.226 165.6055,16.617 165.8845,15.081 C166.1585,13.548 166.5455,12.264 167.0455,11.228 C167.5345,10.154 168.2555,9.301 169.2015,8.665 C170.1535,8.034 171.2005,7.71497983 172.3445,7.71497983 C174.2105,7.711 175.6355,8.302 176.6195,9.486 C177.6055,10.671 178.2785,12.241 178.6315,14.196 C178.8845,15.575 179.0665,17.156 179.1805,18.94 C179.2915,20.72 179.3065,22.499 179.2225,24.283 M181.7305,5.292 C179.2965,2.777 176.2055,1.521 172.4535,1.5279709 C171.1475,1.53 170.0095,1.637 169.0385,1.848 C168.0645,2.059 167.2125,2.34 166.4735,2.684 C165.7385,3.031 165.0985,3.423 164.5585,3.862 C164.0175,4.304 163.5435,4.732 163.1315,5.152 C162.1855,6.069 161.3155,7.265 160.5075,8.737 C159.6985,10.204 159.0395,11.916 158.5295,13.865 C158.0205,15.811 157.7245,17.996 157.6465,20.42 C157.5685,22.846 157.7815,25.448 158.2905,28.235 C158.6665,30.294 159.2275,32.202 159.9715,33.957 C160.7145,35.709 161.6685,37.214 162.8275,38.472 C163.9885,39.732 165.3655,40.716 166.9635,41.417 C168.5605,42.118 170.4165,42.469 172.5385,42.4670085 C175.4115,42.462 177.8565,41.827 179.8745,40.56 C181.4285,39.605 182.7395,38.248 183.8055,36.49 C184.8715,34.733 185.6885,32.738 186.2625,30.505 C186.8325,28.269 187.1475,25.891 187.2105,23.373 C187.2745,20.852 187.0715,18.336 186.6115,15.818 C185.7895,11.312 184.1645,7.806 181.7305,5.292" id="Fill-15" fill="#DC1842"></path>
            <path d="M214.9862,26.1864 L220.0272,26.1784 L220.0122,35.2224 C218.9612,35.8734 217.6812,36.2004 216.1782,36.2044 C214.2212,36.2064 212.6112,35.6384 211.3402,34.5004 C210.0752,33.3654 209.2012,31.4834 208.7202,28.8614 C208.4992,27.6454 208.3462,26.1574 208.2702,24.3884 C208.1942,22.6194 208.2242,20.8224 208.3612,18.9964 C208.5032,17.1724 208.7922,15.4524 209.2312,13.8344 C209.6702,12.2174 210.2982,10.9534 211.1052,10.0374 C211.6752,9.3944 212.3912,8.8774 213.2512,8.4934 C214.1122,8.1154 215.0492,7.9234 216.0562,7.9214 C217.3592,7.9194 218.6002,8.1434 219.7782,8.5994 C220.9522,9.0554 222.1132,9.8174 223.2562,10.8834 L226.7612,5.9794 C223.6832,2.8754 220.0742,1.3304 215.9292,1.33638259 C214.8232,1.3384 213.7832,1.4254 212.8262,1.5984 C211.8592,1.7714 210.9362,2.0504 210.0602,2.4324 C209.1842,2.8184 208.3382,3.3444 207.5122,4.0134 C206.6912,4.6854 205.8752,5.4934 205.0702,6.4504 C204.1452,7.5244 203.3402,8.8484 202.6512,10.4374 C201.9702,12.0194 201.4342,13.7674 201.0562,15.6754 C200.6762,17.5834 200.4852,19.6274 200.4642,21.8044 C200.4512,23.9804 200.6492,26.2114 201.0672,28.5024 C201.4452,30.5614 202.0532,32.4384 202.8892,34.1374 C203.7292,35.8344 204.7792,37.2834 206.0392,38.4824 C207.3012,39.6814 208.7462,40.6034 210.3782,41.2534 C212.0072,41.8954 213.8202,42.2184 215.8092,42.2184 C217.8612,42.2124 219.8272,41.9584 221.6912,41.4584 C223.5572,40.9574 225.3582,40.0944 227.0902,38.8664 L227.0932,19.5814 L213.7872,19.6044 L214.9862,26.1864 Z" id="Fill-17" fill="#DC1842"></path>
            <path d="M248.5946,18.7933 C247.8426,18.9893 246.7286,19.0843 245.2526,19.0883 L243.1346,19.0933 L243.1096,8.2163 L246.5086,8.2102902 C247.9846,8.2083 249.1416,8.5123 249.9756,9.1283 C250.8116,9.7433 251.3556,10.7453 251.6076,12.1323 C251.7676,13.0193 251.7456,14.0133 251.5366,15.1133 C251.3296,16.2153 250.9546,17.0743 250.4076,17.6933 C249.9496,18.2293 249.3486,18.5993 248.5946,18.7933 M258.9726,37.2743 C258.3436,35.9733 257.6826,34.6413 256.9916,33.2673 C256.2976,31.8903 255.6146,30.5893 254.9256,29.3483 C254.2416,28.1093 253.6736,27.1663 253.2326,26.5203 C253.0126,26.2133 252.7366,25.8593 252.3986,25.4603 C252.0656,25.0613 251.7316,24.7473 251.3936,24.5183 C252.6546,24.2513 253.8006,23.7423 254.8476,22.9923 C255.8906,22.2493 256.7496,21.2823 257.4356,20.0983 C258.1156,18.9113 258.5836,17.5203 258.8306,15.9143 C259.0756,14.3133 259.0256,12.5363 258.6686,10.5893 C258.1816,7.9203 257.0826,5.8053 255.3776,4.2433 C253.6736,2.6773 251.5346,1.9023 248.9596,1.9062846 L236.2836,1.9293 L236.3056,41.7193 L243.1546,41.7103 L243.1576,25.1033 C243.4816,25.1033 243.7776,25.1813 244.0326,25.3343 C244.3216,25.4813 244.6516,25.7433 245.0096,26.1023 C245.3686,26.4643 245.7886,27.0183 246.2706,27.7613 C246.7516,28.5043 247.2916,29.4753 247.9066,30.6783 C248.5186,31.8773 249.2366,33.3963 250.0596,35.2263 L253.0086,41.6883 L261.1076,41.6713 C261.0566,41.5973 260.8476,41.1703 260.4756,40.3873 C260.1046,39.6043 259.6036,38.5683 258.9726,37.2743" id="Fill-19" fill="#DC1842"></path>
            <path d="M286.4569,24.0887 C286.3739,25.8727 286.1849,27.5787 285.8949,29.2077 C285.6029,30.8427 285.1939,32.1877 284.6729,33.2637 C284.0879,34.3737 283.3569,35.1527 282.4709,35.5967 C281.5839,36.0327 280.6529,36.2617058 279.6719,36.2617058 C277.9019,36.2637 276.4859,35.7487 275.4109,34.7187 C274.3409,33.6837 273.5639,31.8807 273.0959,29.3167 C272.8539,27.9777 272.6839,26.4617 272.5909,24.7787 C272.4959,23.0917 272.4909,21.4057 272.5719,19.7167 C272.6619,18.0317 272.8419,16.4247 273.1159,14.8867 C273.3909,13.3557 273.7809,12.0697 274.2819,11.0357 C274.7689,9.9587 275.4889,9.1067 276.4389,8.4727 C277.3899,7.8417 278.4349,7.5227 279.5779,7.5206799 C281.4449,7.5167 282.8679,8.1097 283.8529,9.2937 C284.8399,10.4787 285.5109,12.0487 285.8669,14.0037 C286.1189,15.3827 286.2989,16.9637 286.4189,18.7457 C286.5279,20.5257 286.5429,22.3067 286.4569,24.0887 M288.9629,5.0967 C286.5319,2.5847 283.4389,1.3287 279.6899,1.3356709 C278.3839,1.3377 277.2459,1.4447 276.2769,1.6557 C275.2969,1.8667 274.4459,2.1477 273.7079,2.4917 C272.9729,2.8367 272.3329,3.2307 271.7949,3.6677 C271.2549,4.1077 270.7749,4.5377 270.3659,4.9597 C269.4239,5.8737 268.5499,7.0727 267.7409,8.5427 C266.9329,10.0117 266.2719,11.7237 265.7619,13.6707 C265.2569,15.6187 264.9589,17.8017 264.8809,20.2277 C264.8009,22.6517 265.0159,25.2557 265.5269,28.0407 C265.8999,30.1037 266.4649,32.0097 267.2049,33.7667 C267.9499,35.5167 268.9019,37.0237 270.0629,38.2767 C271.2249,39.5377 272.6019,40.5217 274.1989,41.2227 C275.7959,41.9257 277.6509,42.2777 279.7769,42.2727525 C282.6459,42.2697 285.0909,41.6317 287.1109,40.3697 C288.6649,39.4107 289.9759,38.0557 291.0399,36.2947 C292.1029,34.5387 292.9209,32.5437 293.4949,30.3107 C294.0629,28.0747 294.3819,25.6987 294.4429,23.1807 C294.5089,20.6607 294.3079,18.1417 293.8479,15.6237 C293.0259,11.1197 291.3959,7.6137 288.9629,5.0967" id="Fill-21" fill="#DC1842"></path>
            <path d="M320.4041,27.2586 C320.4041,27.7876 320.4011,28.2296 320.4041,28.5736 C320.4011,28.9156 320.3951,29.2026 320.3891,29.4326 C320.3811,29.6606 320.3701,29.8696 320.3571,30.0626 C320.3421,30.2516 320.3191,30.4426 320.2901,30.6316 C320.1611,32.0486 319.6711,33.2026 318.8161,34.0986 C317.9591,34.9996 316.7581,35.4496 315.1981,35.4516 C314.0571,35.4556 313.0101,35.1686 312.0601,34.5986 C311.1041,34.0306 310.4991,33.0176 310.2301,31.5696 C310.1481,31.1096 310.0831,30.5856 310.0171,29.9936 C309.9601,29.4046 309.9411,28.7256 309.9621,27.9616 L309.9361,1.7966 L302.8431,1.8106 L302.8601,29.5176 C302.8771,31.0456 303.0101,32.4576 303.2451,33.7566 C303.7211,36.3896 305.0011,38.4746 307.0761,40.0186 C309.1511,41.5596 311.8731,42.3296 315.2291,42.3226473 C316.8301,42.3196 318.1731,42.1826 319.2681,41.9116 C320.3591,41.6436 321.2731,41.3286 322.0081,40.9636 C322.7391,40.6006 323.3211,40.2056 323.7501,39.7856 C324.1781,39.3656 324.5271,39.0066 324.7971,38.6966 C325.3451,38.1216 325.7891,37.5126 326.1251,36.8626 C326.4661,36.2116 326.7141,35.4876 326.8831,34.6896 C327.0431,33.8826 327.1571,32.9796 327.2151,31.9666 C327.2751,30.9546 327.3071,29.8196 327.3021,28.5586 L327.3021,1.7666 L320.3591,1.7776 L320.4041,27.2586 Z" id="Fill-23" fill="#DC1842"></path>
            <g id="Group-27" transform="translate(336.000000, 0.857300)">
                <mask id="mask-6" fill="white">
                    <use xlink:href="#path-5"></use>
                </mask>
                <g id="Clip-26"></g>
                <path d="M16.4823,14.8408 C16.3463,15.8958 16.0893,16.7808 15.6993,17.4968 C15.3613,18.1338 14.8523,18.6148 14.1643,18.9388 C13.4733,19.2588 12.4523,19.4198 11.0873,19.4218 L7.6723,19.4278 L7.6893,7.4598 L11.8743,7.45377337 C14.3673,7.4468 15.8653,8.8198 16.3703,11.5688 C16.5753,12.6978 16.6113,13.7868 16.4823,14.8408 M23.4153,9.9508 C23.1223,8.3488 22.5623,6.9278 21.7323,5.6908 C20.9053,4.4538 19.8823,3.4528 18.6713,2.6888 C17.7093,2.0408 16.5223,1.5788 15.1183,1.2938 C13.7183,1.0108 11.8613,0.8708 9.5493,0.875670679 L0.6173,0.8928 L0.6403,40.6828 L7.7363,40.6698 L7.6823,26.0128 L11.2743,26.0058 C12.6373,26.0018 13.9553,25.8858 15.2233,25.6578 C16.4933,25.4238 17.5103,25.0818 18.2653,24.6188 C20.5443,23.2408 22.1253,21.3198 23.0243,18.8578 C23.9193,16.3928 24.0483,13.4238 23.4153,9.9508" id="Fill-25" fill="#DC1842" mask="url(#mask-6)"></path>
            </g>
        </g>
    </g>
</svg>
