<?xml version="1.0" encoding="utf-8"?>
<!-- Generator: Adobe Illustrator 24.1.3, SVG Export Plug-In . SVG Version: 6.00 Build 0)  -->
<svg version="1.1" id="Laag_1" xmlns="http://www.w3.org/2000/svg" xmlns:xlink="http://www.w3.org/1999/xlink" x="0px" y="0px"
	 viewBox="0 0 354 76" style="enable-background:new 0 0 354 76;" xml:space="preserve">
<style type="text/css">
	.st0{fill:#E67247;}
</style>
<g>
	<g>
		<path class="st0" d="M174.3,24.3c0,5.7-4.2,9.7-9.4,9.7c-5.2,0-9.4-4-9.4-9.7c0-5.7,4.2-9.8,9.4-9.8
			C170.1,14.5,174.3,18.6,174.3,24.3z"/>
	</g>
	<g>
		<path class="st0" d="M188.2,19C185.4,6.3,172.8-1.7,160,1.1c-12.7,2.9-20.7,15.5-17.9,28.2c0.3,1.1,0.6,2.2,1,3.3
			c-2.3,3.3-3.3,7.4-2.4,11.6c1.8,7.9,9.5,12.8,17.4,11c4.5-1,8-3.9,9.9-7.7c0.8-0.1,1.5-0.2,2.3-0.4
			C183.1,44.4,191.1,31.8,188.2,19z M165,40.3c-8.9,0-16.2-7.2-16.2-16.1c0-8.9,7.3-16.1,16.2-16.1c8.9,0,16.2,7.2,16.2,16.1
			C181.1,33.1,173.9,40.3,165,40.3z"/>
	</g>
	<g>
		<ellipse transform="matrix(0.3591 -0.9333 0.9333 0.3591 28.5261 172.931)" class="st0" cx="140.2" cy="65.7" rx="9" ry="9"/>
	</g>
</g>
<g>
	<path d="M7,16.2h5.5v3.8c1.4-2.9,4.1-4.3,7.3-4.3c5.6,0,8.3,4.1,8.3,10.5v12.5h-5.5V26.3c0-3.9-1.6-6-4.4-6c-3.2,0-5.8,2.4-5.8,7.1
		v11.3H7V16.2z"/>
	<path d="M36.8,6c2,0,3.6,1.5,3.6,3.5c0,2-1.6,3.4-3.6,3.4s-3.6-1.5-3.6-3.4C33.3,7.5,34.8,6,36.8,6z M34.1,38.7V16.2h5.5v22.5H34.1
		z"/>
	<path d="M67.5,34.9c-3,3.4-6.7,4.3-10.2,4.3c-8.1,0-13-5.3-13-11.7c0-6.6,5.2-11.8,12.3-11.8c6.1,0,11.8,3.8,11.8,12.5H49.8
		c0,3.6,2.9,6.4,7.7,6.4c2.8,0,4.9-1,6.8-2.8L67.5,34.9z M50,24.5h12.8C62,21,58.9,20,56.6,20C54.2,20,51.2,21,50,24.5z"/>
	<path d="M93.6,38.7h-5.5v-3.8c-1.4,2.9-4.1,4.3-7.3,4.3c-5.6,0-8.4-4-8.4-10.5V16.2H78v12.4c0,3.6,1.4,5.8,4.4,5.8
		c2.5,0,5.8-2.1,5.8-8.5v-9.7h5.5V38.7z"/>
	<path d="M112.9,16.8h4.1l4.6,14.5l4.9-15.1h5.9l-8.1,22.5h-4.9L115,24.5l-4.5,14.2h-4.9l-8.1-22.5h5.9l4.9,15.1L112.9,16.8z"/>
</g>
<g>
	<path d="M191.7,15.7h5.5v3.8c1.4-2.9,4.1-4.3,7.3-4.3c5.6,0,8.3,4.1,8.3,10.5v12.5h-5.5V25.8c0-3.9-1.6-6-4.4-6
		c-3.2,0-5.8,2.4-5.8,7.1v11.3h-5.5V15.7z"/>
	<path d="M225.2,15.7h6.7v4.2h-6.7v11.8c0,1.4,0.6,2.4,2.2,2.4c1.3,0,2.2-0.9,2.2-2.3c0-0.5-0.1-1.4-0.3-1.9h4.5
		c0.4,0.8,0.5,2.1,0.5,2.5c0,3.3-2.3,6.2-7.1,6.2c-3.7,0-7.4-1.6-7.4-7.8v-11h-3.5v-4.2h3.8l1-6h4.2V15.7z"/>
	<path d="M250.3,16.3h4.1l4.6,14.5l4.9-15.1h5.9l-8.1,22.5h-4.9L252.4,24l-4.5,14.2H243l-8.1-22.5h5.9l4.9,15.1L250.3,16.3z"/>
	<path d="M294.6,34.4c-3,3.4-6.7,4.3-10.2,4.3c-8.1,0-13-5.3-13-11.7c0-6.6,5.2-11.8,12.3-11.8c6.1,0,11.8,3.8,11.8,12.5h-18.7
		c0,3.6,2.9,6.4,7.7,6.4c2.8,0,4.9-1,6.8-2.8L294.6,34.4z M277.2,24H290c-0.8-3.5-3.9-4.5-6.2-4.5C281.3,19.6,278.3,20.5,277.2,24z"
		/>
	<path d="M305.3,20.7c0.8-3.8,3.7-5.5,6.1-5.5c0.8,0,1.2,0.1,1.9,0.3v5.4c-0.8-0.3-1.9-0.4-2.6-0.4c-2,0-5.3,1.1-5.3,7.3v10.4h-5.5
		V15.7h5.4V20.7z"/>
	<path d="M317,48.4V15.7h5.5v3.4c1.6-2.4,4.4-3.9,7.7-3.9c6.7,0,11,5.3,11,11.8c0,6.4-4.2,11.7-11.1,11.7c-3,0-5.8-1.2-7.7-3.8v13.5
		H317z M329.1,19.8c-3.7,0-6.7,2.5-6.7,7c0,4.4,2.8,7.3,6.9,7.3c4.1,0,6.5-3.2,6.5-7.1C335.7,23,333.2,19.8,329.1,19.8z"/>
</g>
<g>
	<path d="M342.7,8.7c0-1.1,0.4-2.1,1.2-2.9c0.8-0.8,1.8-1.2,2.9-1.2s2.1,0.4,2.9,1.2c0.8,0.8,1.2,1.8,1.2,2.9s-0.4,2.1-1.2,2.9
		c-0.8,0.8-1.8,1.2-2.9,1.2s-2.1-0.4-2.9-1.2C343.1,10.8,342.7,9.8,342.7,8.7z M350.3,8.7c0-1-0.3-1.8-1-2.4c-0.7-0.7-1.5-1-2.4-1
		s-1.8,0.3-2.4,1c-0.7,0.7-1,1.5-1,2.4s0.3,1.8,1,2.4c0.7,0.7,1.5,1,2.4,1s1.8-0.3,2.4-1C350,10.4,350.3,9.6,350.3,8.7z M348.2,11.2
		L346.9,9h-0.7v2.2h-0.7V6.1h1.3c1.2,0,1.8,0.5,1.8,1.4c0,0.7-0.3,1.1-1,1.4l1.4,2.3H348.2z M346.1,6.7v1.7c0.1,0,0.2,0,0.5,0
		c0.5,0,0.8-0.1,1-0.2c0.2-0.1,0.2-0.3,0.2-0.7c0-0.6-0.4-0.8-1.1-0.8h-0.3L346.1,6.7z"/>
</g>
</svg>
