<?xml version="1.0" encoding="utf-8"?>
<!-- Generator: Adobe Illustrator 19.2.1, SVG Export Plug-In . SVG Version: 6.00 Build 0)  -->
<svg version="1.1" id="Layer_1" xmlns="http://www.w3.org/2000/svg" xmlns:xlink="http://www.w3.org/1999/xlink" x="0px" y="0px" width="70px" height="29px"
	 viewBox="0 0 142.3 63.8" style="enable-background:new 0 0 142.3 63.8;" xml:space="preserve">
<metadata><?xpacket begin="﻿" id="W5M0MpCehiHzreSzNTczkc9d"?>
<x:xmpmeta xmlns:x="adobe:ns:meta/" x:xmptk="Adobe XMP Core 5.6-c111 79.158366, 2015/09/25-01:12:00        ">
   <rdf:RDF xmlns:rdf="http://www.w3.org/1999/02/22-rdf-syntax-ns#">
      <rdf:Description rdf:about=""/>
   </rdf:RDF>
</x:xmpmeta>





















<?xpacket end="w"?></metadata>
<style type="text/css">
	.st0{fill:#FF5200;}
</style>
<path class="st0" d="M134.5,30.1V21c0-13.3-7-15.8-14.5-15.8c-5.9,0-10.6,1.8-14.8,5.3c-2.7-4.3-7.3-5.3-12.1-5.3
	c-5.9,0-10.7,1.8-14.8,5.3c-2.7-4.3-7.3-5.3-12.1-5.3c-5.9,0-10.6,1.8-14.8,5.3c-2.7-4.3-7.3-5.3-12.1-5.3c-6,0-10.7,1.8-14.8,5.4
	v-0.1c-0.1-1.9-0.5-3.5-1-5.3L8,7.9c1.3,5.7,1.6,11.6,1.6,18v33l17.5-3.1V21.1c1.9-1.1,4.4-2.1,5.6-2.1c3.1,0,3.8,0.6,3.8,7.7v27.4
	l17.5-3.1v-30c1.9-1.1,4.4-2.1,5.6-2.1c3.1,0,3.8,0.6,3.8,7.7v22.7l17.1-3l0.4-0.1V21.1c1.9-1.1,4.4-2.1,5.6-2.1
	c3.1,0,3.8,0.6,3.8,7.7v17.9l17.5-3.1V21.1c1.9-1.1,4.4-2.1,5.6-2.1c3.1,0,3.8,0.6,3.8,7.7v13.2l25.2-4.5v-6.7L134.5,30.1z"/>
</svg>
