<?xml version="1.0" encoding="UTF-8"?>
<svg width="20px" height="18px" viewBox="0 0 20 18" version="1.1" xmlns="http://www.w3.org/2000/svg" xmlns:xlink="http://www.w3.org/1999/xlink">
    <!-- Generator: Sketch 57.1 (83088) - https://sketch.com -->
    <title>icon news@2x</title>
    <desc>Created with Sketch.</desc>
    <g id="Desktop" stroke="none" stroke-width="1" fill="none" fill-rule="evenodd">
        <g id="news-detail" transform="translate(-220.000000, -255.000000)" fill="#DD1742" fill-rule="nonzero">
            <g id="category" transform="translate(200.000000, 234.000000)">
                <g id="icon-news" transform="translate(20.000000, 21.000000)">
                    <path d="M19.705,5.295 L19.707,5.293 L18,3.586 L18,1 C18,0.44771525 17.5522847,0 17,0 L3,0 C2.44771525,0 2,0.44771525 2,1 L2,3.586 L0.293,5.293 L0.295,5.295 C0.106552907,5.48123488 0.000344302624,5.73505544 0,6 L0,17 C0,17.5522847 0.44771525,18 1,18 L19,18 C19.5522847,18 20,17.5522847 20,17 L20,6 C20,5.73 19.89,5.479 19.705,5.295 Z M16,2 L16,6.798 L10,10.798 L4,6.798 L4,2 L16,2 Z M18,16 L2,16 L2,7.868 L9.445,12.832 C9.78039675,13.0571084 10.2186032,13.0571084 10.554,12.832 L18,7.868 L18,16 Z" id="Shape"></path>
                    <path d="M10,4 L14,4 L14,6 L10,6 L10,4 Z M6,4 L8,4 L8,6 L6,6 L6,4 Z" id="Shape"></path>
                </g>
            </g>
        </g>
    </g>
</svg>