<?xml version="1.0" encoding="UTF-8"?>
<svg width="20px" height="21px" viewBox="0 0 20 21" version="1.1" xmlns="http://www.w3.org/2000/svg" xmlns:xlink="http://www.w3.org/1999/xlink">
    <!-- Generator: Sketch 57.1 (83088) - https://sketch.com -->
    <title>icon cube@2x</title>
    <desc>Created with Sketch.</desc>
    <g id="Desktop" stroke="none" stroke-width="1" fill="none" fill-rule="evenodd">
        <g id="project-detail" transform="translate(-220.000000, -324.000000)">
            <g id="category" transform="translate(200.000000, 304.000000)">
                <g id="icon-cube" transform="translate(20.000000, 20.000000)">
                    <path d="M11,17.563 L17.981,14.358 L17.981,6.545 L11,9.679 L11,17.563 Z M9,9.679 L2.019,6.545 L2.019,14.351 L9,17.563 L9,9.679 Z M10,7.936 L12.927,6.622 L16.531,5.004 L10,2.095 L3.469,5.004 L7.073,6.622 L10,7.936 Z" id="Shape"></path>
                    <path d="M0.019,14.991 C0.019,15.3813108 0.246423259,15.7358501 0.601,15.899 L9.582,20.031 C9.597,20.038 9.614,20.035 9.629,20.042 C9.749,20.09 9.873,20.123 10,20.123 C10.127,20.123 10.25,20.091 10.368,20.043 C10.384,20.037 10.401,20.039 10.417,20.032 L19.398,15.909 C19.753,15.746 19.981,15.39 19.981,15 L19.981,4.999 L19.98,4.993 C19.9791714,4.90395581 19.9660474,4.8154528 19.941,4.73 C19.933,4.702 19.92,4.677 19.91,4.65 C19.8897103,4.59362066 19.8646181,4.53908713 19.835,4.487 C19.8163819,4.45836015 19.7963574,4.43065958 19.775,4.404 C19.7205975,4.33111542 19.6563139,4.26615873 19.584,4.211 C19.563,4.194 19.547,4.175 19.524,4.16 C19.498,4.142 19.467,4.134 19.44,4.119 C19.421,4.11 19.408,4.096 19.388,4.087 L10.407,0.087 C10.1478627,-0.0280513146 9.85213726,-0.0280513146 9.593,0.087 L0.612,4.087 C0.592,4.096 0.577,4.11 0.559,4.12 C0.531,4.135 0.502,4.144 0.476,4.16 C0.454,4.175 0.437,4.194 0.416,4.211 C0.341525623,4.26365567 0.276877064,4.32898118 0.225,4.404 C0.203642573,4.43065958 0.183618064,4.45836015 0.165,4.487 C0.135,4.539 0.111,4.594 0.09,4.65 C0.08,4.678 0.066,4.702 0.059,4.73 C0.033470991,4.81534635 0.020336802,4.90391793 0.02,4.993 L0.019,4.999 L0.019,14.991 L0.019,14.991 Z M2.019,6.545 L9,9.679 L9,17.563 L2.019,14.351 L2.019,6.545 Z M17.981,14.358 L11,17.563 L11,9.678 L17.981,6.544 L17.981,14.358 L17.981,14.358 Z M10,2.095 L16.531,5.004 L12.927,6.622 L10,7.936 L7.073,6.622 L3.469,5.004 L10,2.095 Z" id="Shape" fill="#DD1742" fill-rule="nonzero"></path>
                </g>
            </g>
        </g>
    </g>
</svg>