<?xml version="1.0" encoding="UTF-8"?>
<svg width="20px" height="20px" viewBox="0 0 20 20" version="1.1" xmlns="http://www.w3.org/2000/svg" xmlns:xlink="http://www.w3.org/1999/xlink">
    <!-- Generator: Sketch 57.1 (83088) - https://sketch.com -->
    <title>icon search@2x</title>
    <desc>Created with Sketch.</desc>
    <g id="Symbols" stroke="none" stroke-width="1" fill="none" fill-rule="evenodd">
        <g id="header" transform="translate(-1380.000000, -26.000000)">
            <g id="subheader">
                <g id="icon-search" transform="translate(1380.000000, 26.000000)">
                    <path d="M8.4375,15 C12.0567187,15 15,12.0567188 15,8.4375 C15,4.81828125 12.0567187,1.875 8.4375,1.875 C4.81828125,1.875 1.875,4.81828125 1.875,8.4375 C1.875,12.0567188 4.81828125,15 8.4375,15 Z M11.5284375,5.344375 C12.3521254,6.16271758 12.8144552,7.27640461 12.8125062,8.4375 L10.625,8.4375 C10.625,7.855625 10.3964063,7.3065625 9.981875,6.8909375 C9.155,6.06625 7.7221875,6.0640625 6.8909375,6.893125 L5.3465625,5.344375 C7.0025,3.690625 9.87359375,3.690625 11.5284375,5.344375 L11.5284375,5.344375 Z" id="Shape"></path>
                    <path d="M8.55294809,17.1049818 C10.4506084,17.104592 12.2935844,16.4693506 13.7884214,15.3004062 L18.4882664,20 L20,18.4883472 L15.300155,13.7887535 C16.4697705,12.293847 17.1054398,10.4505424 17.1058962,8.55249091 C17.1058962,3.83686124 13.2688298,0 8.55294809,0 C3.83706634,0 0,3.83686124 0,8.55249091 C0,13.2681206 3.83706634,17.1049818 8.55294809,17.1049818 Z M8.55294809,2.13812273 C12.0906612,2.13812273 14.9676592,5.01496686 14.9676592,8.55249091 C14.9676592,12.090015 12.0906612,14.9668591 8.55294809,14.9668591 C5.01523494,14.9668591 2.13823702,12.090015 2.13823702,8.55249091 C2.13823702,5.01496686 5.01523494,2.13812273 8.55294809,2.13812273 Z" id="Shape" fill="#626E79" fill-rule="nonzero"></path>
                    <path d="M10.2814567,7.18860424 C10.6978789,7.60821555 10.9275154,8.16254417 10.9275154,8.75 L13.125,8.75 C13.1269579,7.57776841 12.6625192,6.45339988 11.835074,5.62720848 C10.1715828,3.95759717 7.28739241,3.95759717 5.625,5.62720848 L7.17641975,7.19081272 C8.01146155,6.35379859 9.4508099,6.35600707 10.2814567,7.18860424 Z" id="Path" fill="#626E79" fill-rule="nonzero"></path>
                </g>
            </g>
        </g>
    </g>
</svg>