<?xml version="1.0" encoding="utf-8"?>
<!-- Generator: Adobe Illustrator 25.3.1, SVG Export Plug-In . SVG Version: 6.00 Build 0)  -->
<svg version="1.1" id="Laag_1" xmlns="http://www.w3.org/2000/svg" xmlns:xlink="http://www.w3.org/1999/xlink" x="0px" y="0px"
	 viewBox="0 0 646 260.4" style="enable-background:new 0 0 646 260.4;" xml:space="preserve">
<style type="text/css">
	.st0{fill:none;stroke:#DDDCDD;}
</style>
<desc>Created with Sketch.</desc>
<g id="pattern-strokes-gray">
	<line class="st0" x1="-14.6" y1="274.1" x2="-34" y2="254.7"/>
	<line class="st0" x1="14.5" y1="274.1" x2="-34" y2="225.6"/>
	<line class="st0" x1="43.5" y1="274.1" x2="-34" y2="196.5"/>
	<line class="st0" x1="72.6" y1="274.1" x2="-34" y2="167.4"/>
	<line class="st0" x1="130.8" y1="274.1" x2="-34" y2="109.3"/>
	<line class="st0" x1="247.2" y1="274.1" x2="-34" y2="-7.2"/>
	<line class="st0" x1="421.8" y1="274.1" x2="135.2" y2="-12.6"/>
	<line class="st0" x1="596.3" y1="274.1" x2="309.7" y2="-12.6"/>
	<line class="st0" x1="680" y1="241.1" x2="426.3" y2="-12.6"/>
	<line class="st0" x1="680" y1="66.6" x2="600.7" y2="-12.6"/>
	<line class="st0" x1="101.7" y1="274.1" x2="-34" y2="138.4"/>
	<line class="st0" x1="218" y1="274.1" x2="-34" y2="22"/>
	<line class="st0" x1="392.8" y1="274.1" x2="106.1" y2="-12.6"/>
	<line class="st0" x1="567.3" y1="274.1" x2="280.6" y2="-12.6"/>
	<line class="st0" x1="680" y1="270.3" x2="397" y2="-12.6"/>
	<line class="st0" x1="680" y1="95.7" x2="571.7" y2="-12.6"/>
	<line class="st0" x1="680" y1="37.6" x2="629.8" y2="-12.6"/>
	<line class="st0" x1="680" y1="153.9" x2="513.5" y2="-12.6"/>
	<line class="st0" x1="680" y1="212" x2="455.3" y2="-12.6"/>
	<line class="st0" x1="625.4" y1="274.1" x2="338.7" y2="-12.6"/>
	<line class="st0" x1="509.1" y1="274.1" x2="222.4" y2="-12.6"/>
	<line class="st0" x1="450.9" y1="274.1" x2="164.3" y2="-12.6"/>
	<line class="st0" x1="334.6" y1="274.1" x2="47.9" y2="-12.6"/>
	<line class="st0" x1="276.4" y1="274.1" x2="-10.2" y2="-12.6"/>
	<line class="st0" x1="159.9" y1="274.1" x2="-34" y2="80.2"/>
	<line class="st0" x1="680" y1="8.5" x2="658.9" y2="-12.6"/>
	<line class="st0" x1="680" y1="124.8" x2="542.6" y2="-12.6"/>
	<line class="st0" x1="680" y1="183" x2="484.4" y2="-12.6"/>
	<line class="st0" x1="654.5" y1="274.1" x2="367.8" y2="-12.6"/>
	<line class="st0" x1="538.2" y1="274.1" x2="251.5" y2="-12.6"/>
	<line class="st0" x1="480" y1="274.1" x2="193.3" y2="-12.6"/>
	<line class="st0" x1="363.7" y1="274.1" x2="77" y2="-12.6"/>
	<line class="st0" x1="305.5" y1="274.1" x2="18.9" y2="-12.6"/>
	<line class="st0" x1="188.9" y1="274.1" x2="-34" y2="51.1"/>
</g>
</svg>
